<svg width="128" height="31" viewBox="0 0 128 31" fill="none" xmlns="http://www.w3.org/2000/svg">
<path d="M47.16 15.72C48.0133 15.8933 48.6933 16.3 49.2 16.94C49.72 17.5667 49.98 18.3067 49.98 19.16C49.98 20.3467 49.58 21.2867 48.78 21.98C47.9933 22.66 46.8467 23 45.34 23H39.28V8.88H45.22C46.6467 8.88 47.74 9.19333 48.5 9.82C49.2733 10.4467 49.66 11.3267 49.66 12.46C49.66 13.34 49.4267 14.06 48.96 14.62C48.5067 15.18 47.9067 15.5467 47.16 15.72ZM42.1 14.8H44.64C45.3467 14.8 45.88 14.6467 46.24 14.34C46.6133 14.02 46.8 13.5667 46.8 12.98C46.8 12.3933 46.62 11.94 46.26 11.62C45.9 11.3 45.3467 11.14 44.6 11.14H42.1V14.8ZM44.78 20.7C45.5267 20.7 46.1 20.54 46.5 20.22C46.9 19.8867 47.1 19.4067 47.1 18.78C47.1 18.1533 46.8933 17.6733 46.48 17.34C46.08 16.9933 45.5067 16.82 44.76 16.82H42.1V20.7H44.78ZM51.4158 20.78C55.9358 17.6467 58.1958 15.0467 58.1958 12.98C58.1958 12.3533 58.0424 11.86 57.7358 11.5C57.4424 11.14 56.9758 10.96 56.3358 10.96C55.0158 10.96 54.3158 11.86 54.2358 13.66H51.4958C51.5758 11.9933 52.0824 10.7333 53.0158 9.88C53.9491 9.01333 55.1291 8.58 56.5558 8.58C58.0091 8.58 59.1224 8.96 59.8958 9.72C60.6824 10.4667 61.0758 11.4667 61.0758 12.72C61.0758 13.7067 60.7824 14.7 60.1958 15.7C59.6224 16.6867 58.8891 17.6 57.9958 18.44C57.1024 19.2667 56.1624 19.98 55.1758 20.58H61.3558V22.88H51.4158V20.78ZM71.1639 15.72C72.0172 15.8933 72.6972 16.3 73.2039 16.94C73.7239 17.5667 73.9839 18.3067 73.9839 19.16C73.9839 20.3467 73.5839 21.2867 72.7839 21.98C71.9972 22.66 70.8506 23 69.3439 23H63.2839V8.88H69.2239C70.6506 8.88 71.7439 9.19333 72.5039 9.82C73.2772 10.4467 73.6639 11.3267 73.6639 12.46C73.6639 13.34 73.4306 14.06 72.9639 14.62C72.5106 15.18 71.9106 15.5467 71.1639 15.72ZM66.1039 14.8H68.6439C69.3506 14.8 69.8839 14.6467 70.2439 14.34C70.6172 14.02 70.8039 13.5667 70.8039 12.98C70.8039 12.3933 70.6239 11.94 70.2639 11.62C69.9039 11.3 69.3506 11.14 68.6039 11.14H66.1039V14.8ZM68.7839 20.7C69.5306 20.7 70.1039 20.54 70.5039 20.22C70.9039 19.8867 71.1039 19.4067 71.1039 18.78C71.1039 18.1533 70.8972 17.6733 70.4839 17.34C70.0839 16.9933 69.5106 16.82 68.7639 16.82H66.1039V20.7H68.7839ZM86.6952 8.74C88.4552 8.74 89.9152 9.19333 91.0752 10.1C92.2352 11.0067 93.0018 12.24 93.3752 13.8H90.4152C90.1085 13.04 89.6285 12.44 88.9752 12C88.3352 11.56 87.5618 11.34 86.6552 11.34C85.9085 11.34 85.2352 11.5267 84.6352 11.9C84.0352 12.2733 83.5685 12.8067 83.2352 13.5C82.9018 14.1933 82.7352 15.0067 82.7352 15.94C82.7352 16.86 82.9018 17.6667 83.2352 18.36C83.5685 19.0533 84.0352 19.5867 84.6352 19.96C85.2352 20.3333 85.9085 20.52 86.6552 20.52C87.5618 20.52 88.3352 20.3 88.9752 19.86C89.6285 19.42 90.1085 18.82 90.4152 18.06H93.3752C93.0018 19.62 92.2352 20.8533 91.0752 21.76C89.9152 22.6667 88.4552 23.12 86.6952 23.12C85.3485 23.12 84.1552 22.82 83.1152 22.22C82.0885 21.6067 81.2885 20.7533 80.7152 19.66C80.1552 18.5667 79.8752 17.3267 79.8752 15.94C79.8752 14.54 80.1552 13.2933 80.7152 12.2C81.2885 11.1067 82.0885 10.26 83.1152 9.66C84.1418 9.04667 85.3352 8.74 86.6952 8.74ZM102.851 23L99.5509 17.5H98.3109V23H95.4909V8.88H100.871C102.511 8.88 103.758 9.28 104.611 10.08C105.478 10.88 105.911 11.9333 105.911 13.24C105.911 14.3067 105.611 15.2 105.011 15.92C104.424 16.64 103.571 17.12 102.451 17.36L105.971 23H102.851ZM98.3109 15.56H100.631C102.244 15.56 103.051 14.8467 103.051 13.42C103.051 12.74 102.851 12.2133 102.451 11.84C102.064 11.4533 101.458 11.26 100.631 11.26H98.3109V15.56ZM123.035 9.04V23H120.235V13.26L116.655 23H114.215L110.635 13.3V23H107.815V9.04H111.235L115.475 19.54L119.635 9.04H123.035Z" fill="#ffffff"/>
<rect x="2" y="2.19531" width="24.2523" height="24" rx="8" stroke="#ffffff" stroke-width="4"/>
<rect x="13.0991" y="3.19531" width="12.1441" height="12" rx="6" stroke="#ffffff" stroke-width="4"/>
</svg>
