<svg xmlns="http://www.w3.org/2000/svg" viewBox="0 0 406.45 471.06"><g id="Layer_2" data-name="Layer 2"><g id="Layer_1-2" data-name="Layer 1"><path d="M281.16,471.06c-11.09-2.23-22.1-4.74-32.41-9.64-27.55-13.09-47.07-33.72-57.7-62.39-1.8-4.84-4.18-6-9-5.94C137.75,394.16,93.39,394,49,394,25.69,394,6.85,378.6,2.35,355.71a82.2,82.2,0,0,1-1.16-15.54C1,282.23,1.26,224.28.61,166.35.16,126.65.08,87,0,47.27A47,47,0,0,1,37.51,1.17C39.74.69,42,.38,44.26,0H193.93c6.76,5.54,12.6,12.05,18.81,18.18q41.82,41.3,83.6,82.65a14.42,14.42,0,0,1,4.53,10.92c1,44,.57,87.95.71,131.92,0,3.73.86,5.13,4.92,5.71,49,7.08,81.83,34.12,95.73,81.85,17.89,61.44-23.05,126.45-85.92,138.25-2.54.48-5.07,1-7.6,1.58Zm-268-275.81H14q0,12,0,23.92.13,63,.29,126c.08,20.49,14.05,35.53,33.59,35.58,44.37.1,88.75-.17,133.12-.19,3.82,0,4.59-1.25,4-4.95a105.88,105.88,0,0,1,11.5-66.78c18.57-34.82,48-54.33,86.91-59.45,4.4-.58,5.12-2.29,5.1-6.1q-.29-61.4-.26-122.8c0-4.34-1.4-5.47-5.54-5.42-17,.22-34,.39-51,.09-16.77-.29-29.9-7.72-39.28-21.72-6.06-9-7.62-19.26-7.71-29.82-.14-15.33-.27-30.66-.1-46,.05-4.33-1.45-5.79-5.59-5.35a96.74,96.74,0,0,1-10.07.52c-39.78.13-79.57.61-119.35.17-20.11-.22-37.07,14.94-36.76,37C13.63,98.36,13.15,146.81,13.15,195.25ZM393.06,360.19c.75-50.33-39.8-98.27-97.87-98.4-55.94-.13-98.09,45.12-98.3,98.09-.2,51.46,40.39,98.52,98.24,98.58C352.61,458.52,393.74,411.19,393.06,360.19ZM276.92,101.81l.66-1.06-78.9-78.38a11.45,11.45,0,0,0-.78,2.24c0,15-.41,30.05.17,45,.63,16.51,13.51,31.12,28.91,31.95C243.58,102.5,260.27,101.81,276.92,101.81Z"/><path d="M151.13,169.94h79.38c1.53,0,3.07-.07,4.59.07,3.91.34,6.38,2.56,6.47,6.43.1,3.71-2.36,5.84-5.94,6.48a23.46,23.46,0,0,1-4.11.24q-80.31,0-160.6,0c-7,0-10.52-2.35-10.38-6.89S63.73,170,70.83,170Z"/><path d="M92.78,233.88c-8,0-15.9.05-23.85,0-5.39,0-8.28-2.32-8.39-6.4-.12-4.28,2.85-6.77,8.48-6.79q24.08-.07,48.16,0c5.37,0,8.31,2.38,8.43,6.41.11,4.23-2.92,6.72-8.52,6.77C109,233.93,100.89,233.88,92.78,233.88Z"/><path d="M155,233.86c-3.05,0-6.11.11-9.15,0-4.16-.2-7-2.79-7.22-6.24-.19-3.63,2.67-6.66,7.09-6.82,6.24-.24,12.5-.22,18.75,0,4.43.14,7.36,3.08,7.25,6.7s-3.06,6.2-7.57,6.39C161.13,234,158.08,233.86,155,233.86Z"/><path d="M341.12,337.19c.23,3.63-2.39,5.49-4.74,7.41q-20.61,16.88-41.31,33.66c-3.8,3.09-7.53,6.29-11.47,9.19s-6.81,2.52-10-1.2q-11.26-13-22.32-26.26c-3.26-3.9-3.13-7.58,0-10.1,2.94-2.38,6.48-1.91,9.65,1.67,5.28,6,10.53,12,15.5,18.19,2.53,3.16,4.35,3.64,7.7.85,14.69-12.26,29.61-24.26,44.47-36.33a17,17,0,0,1,4.19-2.75A6.06,6.06,0,0,1,341.12,337.19Z"/></g></g></svg>