<svg xmlns="http://www.w3.org/2000/svg" viewBox="0 0 370.4 356.36"><g id="Layer_2" data-name="Layer 2"><g id="Layer_1-2" data-name="Layer 1"><path d="M282,136.11c0,17.5-.06,35,0,52.49a100.35,100.35,0,0,1-1.71,21.62c-.52,2.39-.2,3.33,2.53,3.44,10.64.41,16.34,6.5,16.37,17.19,0,2.62.13,5.25,0,7.87s1,3.45,3.53,3.42c8.6-.11,17.21,0,25.82-.06a16.19,16.19,0,0,1,12.63,5.5c8.93,9.76,17.78,19.6,26.73,29.35a8.83,8.83,0,0,1,2.47,6.41c-.08,12.24,0,24.49,0,36.74,0,10-6.52,16.73-16.5,17a4.22,4.22,0,0,0-4.41,3c-4.22,10.24-12,16.23-23,16.15s-19.06-6-23.18-16.5a3.57,3.57,0,0,0-3.87-2.65q-27.51.09-55,0c-2.26,0-3.26.9-4.07,2.92-4,10-13.15,16.7-23,16.34-10.81-.4-18.69-5.73-22.92-15.84-1.1-2.64-2.52-3.66-5.29-3.41-7.07.65-13.43-.68-17.93-6.88-1.25-1.73-2.45-.43-3.51.29-7.14,4.82-14.24,9.69-21.37,14.53-4.68,3.18-5.73,3.21-10.41,0-28.66-19.56-57.65-38.65-85.84-58.86S6.43,237.52.79,203.49a59.52,59.52,0,0,1-.72-9.7q0-60-.07-120c0-4,1.48-6.47,5.07-8.22q52.8-25.8,105.52-51.74c8.4-4.12,16.87-8.1,25.17-12.41a10.65,10.65,0,0,1,10.59,0q47.43,23.55,95,46.85C253,54,264.58,59.8,276.3,65.35c4.13,2,5.89,4.54,5.83,9.27C281.91,95.11,282,115.61,282,136.11Zm-43.94,9.21c0-14.37-.13-28.74.08-43.11.06-3.56-1.2-5.29-4.3-6.81Q190,74,146.24,52.33c-3.62-1.8-6.44-1.92-10.06-.12Q91.93,74.14,47.5,95.69c-2.62,1.28-3.58,2.76-3.56,5.71.11,26.48.06,53,.06,79.46a98.47,98.47,0,0,0,.56,13.84c3.21,22.55,13.14,41.52,31.61,54.92,20.39,14.78,41.58,28.47,62.37,42.71,1.94,1.33,3.39,1.4,5.34,0,7.15-5,14.36-10,21.66-14.74a6.09,6.09,0,0,0,3-5.86c-.11-13.62-.06-27.24,0-40.86,0-10.91,6.31-17.28,17.1-17.29,14.59,0,29.18-.06,43.77,0,2.49,0,3.82-.72,4.62-3.21a77.69,77.69,0,0,0,4.12-23.88Q238.09,165.94,238.1,145.32ZM168.43,290.08c-1.63-.13-2.37.84-3.26,1.44-6.31,4.25-12.67,8.45-18.88,12.85-3.53,2.48-6.66,2.54-10.28.06-22.11-15.21-44.78-29.65-66.34-45.6C46.55,241.72,33.75,218.08,33.14,189c-.64-30.86-.08-61.75-.21-92.62,0-4.34,1.53-6.86,5.42-8.75q49.15-23.88,98.17-48a9.88,9.88,0,0,1,9.56,0q48.82,24.15,97.73,48.09c3.89,1.9,5.39,4.46,5.37,8.8q-.23,44.25,0,88.5c0,8.57-.6,17-3.3,25.13-1,2.93.21,3.5,2.79,3.46,5.36-.08,10.73-.14,16.09,0,2.74.08,3.65-1.17,4.16-3.63A104.55,104.55,0,0,0,271,189.18c.11-36.5,0-73,.11-109.5,0-3-.86-4.69-3.65-6.06q-61.86-30.29-123.59-60.8a5.68,5.68,0,0,0-5.59,0Q76.47,43.3,14.61,73.55c-2.84,1.39-3.61,3.13-3.6,6.1.11,20.25-.06,40.5.09,60.75.15,18.86-1,37.76.57,56.59,2.31,28.4,14.69,52.13,34.85,71.84,9.69,9.48,21.65,16,32.72,23.67,19.5,13.5,39.14,26.79,58.71,40.19,1.82,1.25,3.4,2.23,5.7.61,7.56-5.31,15.24-10.43,22.88-15.63.94-.64,1.89-1.31,1.89-2.61Q168.44,302.58,168.43,290.08ZM234,224.63q-23.58,0-47.14,0c-5.63,0-7.38,1.78-7.39,7.43q0,43.29,0,86.59c0,4.49,1.42,6.45,5,7.24,5.82,1.3,8.22.29,10.22-4.09,4.45-9.75,12.32-14.62,22.76-14.92,9.87-.28,19.09,6.24,22.57,15.63,1.08,2.9,2.58,3.67,5.48,3.64,12.84-.14,25.69-.16,38.53,0,3.25,0,4.3-.89,4.28-4.23-.11-29.86-.05-59.73-.07-89.59,0-6.13-1.62-7.71-7.82-7.72Q257.23,224.6,234,224.63Zm95.48,63c-8.59,0-17.19.12-25.78-.07-3.28-.07-4.65.69-4.56,4.33.24,10.1.08,20.21.09,30.32,0,.75,0,1.5.06,2.24a1.49,1.49,0,0,0,1.35,1.53,1.62,1.62,0,0,0,1.85-.94c.36-.79.64-1.62,1-2.43a25,25,0,0,1,22.95-15.8c9.75-.08,19.2,6.44,22.95,15.81.62,1.55.74,3.58,3.22,3.46s4.66-.84,5.91-3.22a9.88,9.88,0,0,0,.85-4.74c0-8.86-.12-17.72.06-26.58.07-3.21-1.14-4-4.13-4C346.7,287.73,338.1,287.63,329.51,287.63Zm21.66-11.53a6.47,6.47,0,0,0-.69-1.22q-8.75-9.74-17.52-19.42a7.38,7.38,0,0,0-5.71-2.33c-8.22,0-16.43.08-24.64,0-2.68,0-3.46,1-3.39,3.55.13,5,0,10,0,15s0,5,4.84,5q21.64,0,43.31,0C348.6,276.58,349.87,277,351.17,276.1Zm-147.1,55.48a13.17,13.17,0,0,0,13.28,13.28,13.54,13.54,0,0,0,13.26-13.44,13.17,13.17,0,0,0-13.42-13.15A12.82,12.82,0,0,0,204.07,331.58Zm109.23-.07a13.13,13.13,0,0,0,13.14,13.35c7.13,0,13.47-6.34,13.4-13.37a13.31,13.31,0,0,0-13.41-13.22A12.8,12.8,0,0,0,313.3,331.51Z"/><path d="M181.48,151.59a6.68,6.68,0,0,1-2.29,4.4q-22.32,20.5-44.69,41c-2.94,2.69-5.79,2.51-8.56-.44q-11.65-12.42-23.12-25c-2.64-2.89-2.65-6.05-.31-8.36,2.51-2.48,5.66-2.36,8.54.68,5.83,6.16,11.61,12.38,17.22,18.74,2,2.27,3.2,2.06,5.31.09,12.22-11.42,24.57-22.68,36.9-34a12.33,12.33,0,0,1,3.33-2.36A5.61,5.61,0,0,1,181.48,151.59Z"/></g></g></svg>