<svg xmlns="http://www.w3.org/2000/svg" viewBox="0 0 332.92 232.62"><g id="Layer_2" data-name="Layer 2"><g id="Layer_1-2" data-name="Layer 1"><path d="M332.92,113.86a10.32,10.32,0,0,0-2.88-7.44q-22.59-24.51-45.13-49.07a24.56,24.56,0,0,0-19.29-8.27c-16,.17-31.93,0-47.9.1-2.89,0-4-.79-3.91-3.82.18-7.12.09-14.25,0-21.37A23.3,23.3,0,0,0,190.38.4c-6-.06-12-.07-18,0a4.63,4.63,0,0,1-2.3-.41H157.84c.07,1.1-108.13,1.22-108,0H37a4.26,4.26,0,0,1-2.39.42c-3.11-.15-6.24,0-9.36,0C9.74.42,0,10.08,0,25.56q0,37.3,0,74.62,0,38.05,0,76.12c0,14,10.09,24,24.12,24.1,4.36,0,8.74.19,13.09-.05,3.16-.17,4.47.85,5.32,4.07a37.43,37.43,0,0,0,72.61-.26c.79-3.07,2.12-3.82,5.11-3.81q50.33.15,100.67,0c3.24,0,4.49,1,5.29,4.14a37.62,37.62,0,0,0,33.67,28.07,38.08,38.08,0,0,0,37.63-23.76c1.11-2.71.41-6.73,3.29-8,2.55-1.09,5.88-.38,8.87-.43a23.34,23.34,0,0,0,23.16-23.17C332.94,156.11,332.85,135,332.92,113.86Zm-254,107.76A26.39,26.39,0,1,1,105,195.25,26.16,26.16,0,0,1,78.92,221.62Zm119.44-32.16q-39.11-.22-78.21,0c-3.12,0-4.25-1-5-3.94a37.43,37.43,0,0,0-72.51-.42c-.93,3.51-2.41,4.62-5.86,4.35-3.84-.3-7.73,0-11.59-.09C16.2,189.12,11,183.92,11,175q0-74.62,0-149.23c0-8.79,5.11-14,13.89-14.28,3.36-.12,6.74.09,10.1-.06,2.62-.12,134.82-.15,137.92,0,5.1.22,10.23,0,15.34.08,9.43.14,14.56,5.31,14.57,14.74q0,39.74,0,79.48c0,26.37-.06,52.74.07,79.11C203,188.3,202,189.48,198.36,189.46ZM217.6,60.1c16,.13,31.93,0,47.89.08,3.59,0,7.11.74,9.62,3.43,12.95,13.84,25.79,27.79,39.42,42.52H218.77c-4.89,0-4.9,0-4.9-5,0-12.38.06-24.75-.05-37.12C213.79,61.2,214.53,60.08,217.6,60.1Zm44.65,161.52c-14.22-.08-26-12.15-26-26.55a26.1,26.1,0,0,1,26.51-26.23,26.39,26.39,0,1,1-.51,52.78Zm59.61-46.69c0,9-5.16,14.15-14.13,14.44h-.38c-7,.15-7,.15-9.12-6.33a37.76,37.76,0,0,0-37.29-25.84c-16.12.46-30.64,12.1-34.73,28.17-.81,3.18-2.17,4.46-5.35,4a22.56,22.56,0,0,0-4.11,0c-2.06.11-2.9-.78-2.9-2.87q.06-33.18,0-66.36c0-3.07,1.78-3,3.91-3q25.08,0,50.15,0c16.59,0,33.18.08,49.77-.06,3.24,0,4.31.87,4.29,4.21C321.8,139.18,321.91,157.06,321.86,174.93Z"/><path d="M50.59,85.72c0-9.82,0-19.65,0-29.47a4.58,4.58,0,0,1,2.5-4.51Q78.74,37,104.35,22.05a4.8,4.8,0,0,1,5.36,0q25.62,14.9,51.3,29.69a4.46,4.46,0,0,1,2.48,4.31q-.06,29.9,0,59.79a4.45,4.45,0,0,1-2.49,4.3q-25.68,14.8-51.3,29.69a4.75,4.75,0,0,1-5.35,0q-25.62-14.91-51.3-29.69a4.57,4.57,0,0,1-2.49-4.51C50.63,105.65,50.59,95.69,50.59,85.72ZM56.86,88c0,8.25,0,16.51,0,24.77a3,3,0,0,0,1.67,3.09q21.63,12.4,43.2,25c2.05,1.18,2.18,1.11,2.18-1.25,0-16.51,0-33,0-49.54a3.23,3.23,0,0,0-1.8-3.25Q80.49,74.35,58.92,61.83c-2-1.14-2.05-1.1-2.06,1.18Q56.85,75.51,56.86,88ZM157.2,88q0-12.39,0-24.77c0-2.54,0-2.55-2.24-1.26q-21.4,12.37-42.84,24.72a3.38,3.38,0,0,0-2,3.35c.06,16.45,0,32.89,0,49.33,0,2.63.1,2.67,2.39,1.34Q134,128.31,155.37,116a3.21,3.21,0,0,0,1.86-3.2C157.16,104.51,157.2,96.25,157.2,88Zm-3.8-33.08c-.33-.22-.67-.47-1-.68-5.9-3.42-11.82-6.81-17.69-10.28a2.77,2.77,0,0,0-3.15.1Q109.87,56.61,88.17,69.11c-1.47.85-1.54,1.34,0,2.21q8.53,4.82,17,9.82a3.32,3.32,0,0,0,3.89,0c6.61-3.9,13.27-7.7,19.92-11.54Q140.48,62.87,152,56.2C152.51,55.9,153.22,55.75,153.4,54.91Zm-93.21.2C66.75,58.9,72.84,62.4,78.9,66c1,.6,1.75.08,2.54-.37Q103.21,53,125,40.41c1.74-1,1.16-1.4-.13-2.13-5.37-3.05-10.73-6.13-16-9.3a3.11,3.11,0,0,0-3.66.07C94,35.57,82.79,42,71.6,48.49Z"/></g></g></svg>