<svg xmlns="http://www.w3.org/2000/svg" viewBox="0 0 325.63 323.81"><g id="Layer_2" data-name="Layer 2"><g id="Layer_1-2" data-name="Layer 1"><path d="M63.87,161.56c0-17.24.07-34.49,0-51.73,0-3.66,1.16-6.06,4.39-7.91q45.08-25.95,90-52.12a8.39,8.39,0,0,1,9.4,0q45,26.16,90,52.13a7.81,7.81,0,0,1,4.37,7.55q-.12,52.49,0,105a7.82,7.82,0,0,1-4.38,7.54q-45.08,26-90.05,52.12a8.37,8.37,0,0,1-9.39,0q-45-26.16-90.05-52.11c-3.23-1.86-4.4-4.28-4.37-7.93C63.94,196.55,63.87,179.06,63.87,161.56Zm11,4c0,14.49,0,29,0,43.48,0,2.49.6,4.08,2.93,5.42q38,21.78,75.83,43.8c3.6,2.08,3.83,2,3.83-2.19,0-29,0-58,.06-87,0-2.69-.77-4.33-3.16-5.7q-38-21.79-75.84-43.78c-3.47-2-3.6-1.93-3.61,2.08Q74.87,143.63,74.88,165.56Zm176.13,0q0-21.75,0-43.49c0-4.46,0-4.47-3.94-2.21q-37.58,21.72-75.19,43.4c-2.45,1.4-3.5,3-3.49,5.88.11,28.87.06,57.73.07,86.59,0,4.61.16,4.68,4.18,2.36q37.58-21.75,75.17-43.44a5.62,5.62,0,0,0,3.26-5.61C250.94,194.53,251,180,251,165.55Zm-6.66-58.07c-.59-.39-1.18-.83-1.82-1.2-10.35-6-20.74-12-31.05-18-2-1.2-3.63-.93-5.53.17q-38,22.05-76.11,44c-2.58,1.48-2.7,2.35,0,3.87,10,5.64,19.94,11.36,29.79,17.24,2.51,1.5,4.38,1.36,6.82-.09,11.6-6.85,23.3-13.52,35-20.26q20.25-11.7,40.48-23.43C242.78,109.22,244,109,244.35,107.48Zm-163.62.35c11.51,6.65,22.2,12.79,32.84,19,1.82,1.06,3.07.15,4.46-.65Q156.24,104.09,194.46,82c3-1.75,2-2.46-.23-3.74-9.42-5.37-18.84-10.76-28.14-16.33-2.39-1.43-4.12-1.23-6.43.12-19.6,11.45-39.27,22.76-58.91,34.12C94.3,99.93,87.87,103.68,80.73,107.83Z"/><path d="M162.65,11.42C88.42,11.51,24.72,66,13.36,139a151.86,151.86,0,0,0,8.52,79.47,20.67,20.67,0,0,1,1.25,3.91c.47,2.91-.51,5.31-3.41,6.31a5.21,5.21,0,0,1-6.91-2.82A60.61,60.61,0,0,1,10.37,220C-23.41,130.53,28.45,29.7,120.81,5.7c47.1-12.25,91.16-4.65,132,21.76,2.54,1.64,3.85,1.67,5.61-.92,3.51-5.17,7.37-10.08,11-15.14,1.74-2.41,3.83-4.06,6.95-3.25,2.94.77,3.91,3.11,4.39,5.89,2.65,15.5,5.42,31,8.05,46.48,1.11,6.53-.67,8.6-7.17,9.43-14.58,1.85-29.13,3.89-43.71,5.7-3.47.43-7.42,1.69-9.78-2.41-2.26-3.93.65-6.58,2.67-9.35,5.38-7.36,10.73-14.74,16.25-22,1.72-2.27,1.85-3.64-.76-5.34a150.07,150.07,0,0,0-62.81-23.69A136.2,136.2,0,0,0,162.65,11.42Zm109.18,17.3-1-.13q-11.73,15.92-23.42,31.84c-.34.47-.73,1.23-.57,1.65.39,1.06,1.49.71,2.28.62q12.57-1.55,25.13-3.2c1.7-.22,2.69-.91,2.33-3C275,47.28,273.41,38,271.83,28.72Z"/><path d="M325.63,161c.46,77.24-55.45,146.63-134.39,160.27-42.6,7.36-82-1.23-118.15-24.81-2.53-1.66-3.85-1.68-5.62.92-3.58,5.26-7.5,10.29-11.25,15.43-1.69,2.31-3.79,3.74-6.71,2.93-2.7-.75-3.89-2.84-4.35-5.53-2.68-15.62-5.46-31.23-8.11-46.86-1.1-6.52.68-8.55,7.22-9.38,14.46-1.84,28.9-3.79,43.35-5.69.86-.11,1.73-.2,2.6-.27,2.93-.26,5.83-.42,7.55,2.69s.14,5.5-1.61,7.88C90.45,266.3,84.84,274.12,79,281.74c-2,2.62-1.9,4,.94,5.87,21.61,13.88,45,22.34,70.71,24.26C192.77,315,230.11,303,262,275.42c29.19-25.27,46.38-57.4,51.19-95.9a149.75,149.75,0,0,0-9.55-75c-2.06-5.2-.67-8.94,3.42-9.55,3.19-.48,5.27,1,6.45,3.89a165.2,165.2,0,0,1,11.34,44.5A154.12,154.12,0,0,1,325.63,161ZM54.09,295.13a1.88,1.88,0,0,0,1.84-1Q67,279.06,78.08,264c.49-.67,1.41-1.38.93-2.27-.59-1.09-1.81-.64-2.72-.52-6.65.85-13.31,1.71-19.94,2.69-7.36,1.09-7.43,1.16-6.2,8.65S52.78,287.67,54.09,295.13Z"/></g></g></svg>