<svg xmlns="http://www.w3.org/2000/svg" viewBox="0 0 370.39 345.22"><g id="Layer_2" data-name="Layer 2"><g id="Layer_1-2" data-name="Layer 1"><path d="M296.28,345.2c-16.84,0-33.68,0-50.52,0-14.07,0-23.33-9.39-23.36-23.57,0-8.49-.1-17,0-25.49,0-3.17-.85-3.3-3.34-1.86-22.12,12.84-44.35,25.5-66.39,38.48-4.64,2.73-8.3,2.93-13.07.14Q72.56,293.75,5.21,255.05c-3.69-2.12-5.22-4.66-5.21-9Q.18,167.34,0,88.58c0-4.14,1.4-6.62,5-8.69Q72.15,41.22,139.13,2.24c4.76-2.78,8.46-3.1,13.36-.24Q219.4,41.06,286.61,79.65c3.87,2.23,5.33,4.9,5.26,9.32-.23,13.62,0,27.25-.17,40.87-.05,3.69.8,5.19,4.75,4.92,4.84-.34,9.72,0,14.59-.09,7.76,0,13.44,3.52,16.9,10.3,1.3,2.55,2.78,3.36,5.48,3.26,5-.18,10-.11,15,0a22.41,22.41,0,0,1,21.95,22.11q.11,76.49,0,153a22,22,0,0,1-22,21.87C331,345.27,313.62,345.2,296.28,345.2ZM140.8,245.41c0-23.61,0-47.23,0-70.84,0-2.7-.77-4.4-3.21-5.68-4.09-2.13-8-4.56-12-6.87q-55.41-32-110.83-64c-3.6-2.09-3.7-2-3.7,1.81q0,71-.05,142.05a5.17,5.17,0,0,0,2.89,5.1q61.62,35.48,123.17,71c3.64,2.1,3.69,2.05,3.7-2.18Zm92.6.91q0,36.56,0,73.12c0,10.55,4.2,14.73,14.79,14.74H344c11.26,0,15.37-4.11,15.37-15.36q0-71.06,0-142.12c0-1.62.06-3.25,0-4.87-.44-7.8-5.18-12.44-12.95-12.6-4.49-.09-9,.11-13.47-.07-2.6-.11-4,.8-5.24,3.13-3.39,6.37-8.88,9.63-16.13,9.65q-15.54,0-31.07,0c-5.58,0-11-2-13.45-6.76-3.1-6.12-7.59-6.48-13.12-6-2,.17-4,0-6,0-10.11,0-14.52,4.48-14.53,14.73Q233.39,210.14,233.4,246.32Zm-81.59-1.12q0,35.24,0,70.48c0,4.46.05,4.51,3.85,2.31,20.85-12.05,41.64-24.19,62.55-36.12,3.13-1.78,4.28-3.74,4.26-7.34q-.19-51.55-.07-103.09c0-13.6,9.56-23.18,23-23.25,4.74,0,9.48-.12,14.22,0,2.4.08,3.84-.55,4.89-2.94a17.12,17.12,0,0,1,13-10.25c2.78-.54,3.3-1.77,3.28-4.26-.1-10.12,0-20.24-.05-30.36,0-4.41,0-4.41-3.89-2.24-.22.12-.45.23-.66.36q-60.36,35.06-120.74,70.05a6.53,6.53,0,0,0-3.74,6.52C151.86,198.47,151.81,221.83,151.81,245.2Zm63-193.74c-1,.53-2,1-2.95,1.58L89.76,123.68c-3.84,2.22-3.87,2.38,0,4.62,17.92,10.39,35.86,20.71,53.73,31.17,2.09,1.22,3.59.88,5.47-.21q61.35-35.58,122.73-71.07c3.45-2,3.47-2.06,0-4q-27.21-15.76-54.43-31.46C216.52,52.25,215.72,51.91,214.82,51.46Zm-12.26-6.81c-.5-1.07-1.61-1.43-2.55-2C183,32.79,165.87,23,148.86,13c-2.15-1.26-3.75-1-5.81.16Q81.87,48.66,20.6,84c-3.41,2-3.42,2.29-.05,4.24C37.28,98,54.06,107.59,70.73,117.39c2.73,1.6,4.8,1.55,7.51,0q37.19-21.7,74.48-43.17Q176.38,60.5,200,46.81C200.94,46.27,202.15,46,202.56,44.65Zm94.13,101.06c-4.61,0-9.22-.06-13.84,0-5.46.1-8.92,3.08-8.94,7.56s3.44,7.55,8.89,7.61q13.65.12,27.3,0c5.4-.06,8.87-3.26,8.75-7.73s-3.45-7.3-8.69-7.42C305.67,145.63,301.18,145.72,296.69,145.71Z"/><path d="M324.82,212.45c-5.11,0-66.21.05-71.31,0-4.08-.05-6.18-1.89-6.27-5.32-.09-3.6,2.07-5.64,6.29-5.66,10.33,0,76.66,0,87,0,4.17,0,6.57,2.12,6.56,5.5s-2.4,5.44-6.58,5.49C335.27,212.49,330.05,212.45,324.82,212.45Z"/><path d="M324.84,260.45c-5.1,0-66.2.05-71.31,0-4.22-.05-6.38-2.06-6.29-5.66.09-3.43,2.18-5.3,6.27-5.32,10.33,0,76.66,0,87,0,4.2,0,6.58,2.08,6.58,5.48s-2.39,5.46-6.55,5.51C335.3,260.49,330.07,260.45,324.84,260.45Z"/><path d="M325.21,297.44c5.23,0,10.46-.06,15.69,0,3.87.06,6.19,2.21,6.18,5.49s-2.33,5.45-6.21,5.47c-10.57.07-77.15.07-87.73,0-3.77,0-5.81-2-5.9-5.3-.09-3.5,2-5.59,5.92-5.66C258.51,297.37,319.86,297.44,325.21,297.44Z"/></g></g></svg>